<svg width="120" height="35" viewBox="0 0 120 35" fill="none" xmlns="http://www.w3.org/2000/svg">
<g clip-path="url(#clip0_420_671)">
<path d="M83.8774 22.9726C82.9059 22.9726 82.1225 22.7084 81.5271 22.1799C81.2322 21.9176 80.9991 21.5932 80.8446 21.23C80.6902 20.8669 80.6182 20.4739 80.6339 20.0796C80.6197 19.646 80.7071 19.2152 80.8893 18.8215C81.0715 18.4278 81.3433 18.0823 81.683 17.8126C82.3839 17.2428 83.3176 16.958 84.4842 16.958C85.369 16.9511 86.2464 17.1203 87.0652 17.4558V17.2977C87.0652 15.4303 86.15 14.4966 84.3196 14.4966C83.2447 14.4995 82.198 14.8412 81.3284 15.473L81.1617 14.191C81.5935 13.8569 82.0841 13.6069 82.6082 13.4539C83.1959 13.2694 83.8084 13.1765 84.4243 13.1782C85.7063 13.1782 86.7034 13.5187 87.4156 14.1996C88.1278 14.8804 88.4775 15.8455 88.4647 17.0947V22.6777H87.1571L87.1208 21.1821C86.8551 21.7429 86.411 22.1997 85.858 22.4812C85.2502 22.8104 84.5686 22.9795 83.8774 22.9726ZM84.1167 21.6906C85.0383 21.6906 85.7505 21.4328 86.2533 20.9172C86.7561 20.4015 87.0268 19.6523 87.0652 18.6694C86.2764 18.3474 85.43 18.1903 84.5782 18.2079C83.7791 18.2079 83.1673 18.3617 82.7428 18.6694C82.5541 18.8237 82.4002 19.0162 82.2912 19.2343C82.1821 19.4523 82.1204 19.6909 82.1102 19.9344C82.0999 20.178 82.1412 20.421 82.2315 20.6474C82.3217 20.8738 82.4588 21.0786 82.6338 21.2483C82.9821 21.5346 83.4778 21.6821 84.1167 21.6821V21.6906Z" fill="#101227"/>
<path d="M94.824 10.0906H90.0337V8.67188H101.285V10.0906H96.4821V22.6775H94.824V10.0906Z" fill="#101227"/>
<path d="M105.052 10.7992C104.91 10.8031 104.769 10.7773 104.637 10.7236C104.505 10.6699 104.386 10.5894 104.288 10.4872C104.092 10.2694 103.984 9.9871 103.984 9.69455C103.984 9.40201 104.092 9.11976 104.288 8.90186C104.491 8.7004 104.766 8.5874 105.052 8.5874C105.339 8.5874 105.614 8.7004 105.817 8.90186C106.013 9.11976 106.12 9.40201 106.12 9.69455C106.12 9.9871 106.013 10.2694 105.817 10.4872C105.718 10.5892 105.599 10.6696 105.468 10.7233C105.336 10.777 105.195 10.8028 105.052 10.7992ZM104.277 13.4636H105.843V22.6768H104.277V13.4636Z" fill="#101227"/>
<path d="M110.49 13.4613H111.968L112.007 15.2476C112.331 14.606 112.833 14.0718 113.453 13.7092C114.103 13.3379 114.842 13.1504 115.59 13.1665C116.378 13.1563 117.154 13.3664 117.829 13.7733C118.511 14.1922 119.062 14.7921 119.423 15.5061C119.827 16.2995 120.029 17.18 120.013 18.0701C120.019 18.9068 119.82 19.7323 119.432 20.4738C119.051 21.2114 118.482 21.835 117.782 22.2814C117.069 22.7426 116.236 22.9821 115.387 22.9694C114.702 22.9799 114.026 22.8049 113.432 22.463C112.848 22.117 112.37 21.6164 112.052 21.0165V27.1892H110.483L110.49 13.4613ZM115.173 21.5677C115.608 21.5814 116.04 21.5013 116.441 21.3328C116.842 21.1643 117.202 20.9114 117.496 20.5913C118.098 19.9389 118.4 19.0971 118.4 18.0658C118.4 17.0345 118.098 16.1927 117.496 15.5403C117.193 15.2312 116.832 14.9855 116.434 14.8179C116.035 14.6502 115.607 14.5638 115.174 14.5638C114.742 14.5638 114.314 14.6502 113.915 14.8179C113.517 14.9855 113.155 15.2312 112.853 15.5403C112.25 16.1913 111.949 17.0331 111.949 18.0658C111.949 19.0985 112.25 19.9403 112.853 20.5913C113.147 20.9114 113.506 21.1644 113.906 21.3329C114.307 21.5014 114.739 21.5815 115.173 21.5677Z" fill="#101227"/>
<path d="M24.6782 30.3004C22.7872 31.3302 21.2061 28.4863 21.2061 28.4863C21.2061 28.4863 19.4071 25.5592 21.4497 24.4609L21.4283 24.4716C21.4711 24.4481 25.661 22.0102 34.8892 13.0406C42.3802 5.7632 48.5807 1.58394 53.3262 0.618179C54.6082 0.26777 61.095 -1.26206 66.5541 2.3745C70.6031 5.07093 72.9641 9.75444 73.5687 16.2904C73.7375 18.1258 73.5815 19.9868 70.5539 19.9227C66.8511 19.8436 67.0926 18.7433 66.9216 16.91C66.5114 12.4979 65.1546 9.48523 62.8877 7.95326C59.6827 5.79098 55.3218 6.98964 55.0911 7.05587C54.9723 7.09455 54.8509 7.12454 54.7278 7.14561C53.1617 7.4426 48.5423 9.07927 39.5385 17.8288C29.6651 27.4244 25.1589 30.0354 24.6782 30.3004Z" fill="#AA6CFF"/>
<path d="M57.343 33.894C56.7555 33.894 56.1102 33.8663 55.4201 33.7979C51.4245 33.3983 47.5145 31.7788 44.1258 29.1165C44.0425 29.0503 43.9613 28.9819 43.8844 28.9029C43.7412 28.7682 29.4813 15.2091 20.845 9.21373C20.1182 8.70911 19.6217 7.93645 19.4646 7.06574C19.3076 6.19502 19.5028 5.29757 20.0074 4.57082C20.512 3.84406 21.2847 3.34753 22.1554 3.19046C23.0261 3.03338 23.9236 3.22863 24.6503 3.73326C33.3764 9.78849 46.8436 22.51 48.367 23.9565C53.7834 28.1443 58.766 27.1551 59.1934 27.0632C59.2532 27.0461 59.2596 27.0461 59.3301 27.0312C63.0329 26.2556 65.3447 24.4864 66.4002 21.6233C66.9134 20.1683 67.1008 18.6184 66.9494 17.083V17.1086C66.9878 17.6556 66.6289 14.7305 70.4641 14.5019C73.3251 14.331 73.6328 16.9569 73.543 16.0894C73.8628 18.6147 73.5989 21.1796 72.7717 23.5869C71.5218 27.2363 68.4194 31.9198 60.736 33.5522C59.6211 33.7912 58.4832 33.9058 57.343 33.894Z" fill="#58C585"/>
<path d="M11.4927 34.6835C9.14243 34.6835 7.07844 34.0917 5.33708 32.9186C2.47612 30.9957 0.687755 27.5664 0.164279 23.0132C-0.0586658 21.0738 -0.0586658 19.1153 0.164279 17.1759V17.1289C1.37362 8.98617 4.43755 3.73645 9.26208 1.53144C12.1444 0.213137 15.563 0.082801 19.144 1.15967C21.6567 1.9139 24.1651 3.43732 24.366 3.55911C24.366 3.55911 26.2078 4.84109 24.3297 7.42215C22.2785 10.2425 21.2144 9.39427 20.5927 9.04172H20.6076C19.3556 8.26826 14.922 6.26409 12.0333 7.59522C8.76638 9.11223 7.37757 14.1184 6.78786 18.0647C6.64031 19.4973 6.65034 20.9418 6.81777 22.3722C7.03143 24.1072 7.59764 26.387 9.08047 27.3805C11.1957 28.7971 15.704 27.7373 21.4217 24.4725C21.8029 24.2457 22.2255 24.0972 22.6648 24.0357C23.1041 23.9741 23.5512 24.0008 23.9801 24.114C24.4089 24.2273 24.8109 24.4249 25.1625 24.6953C25.5141 24.9657 25.8083 25.3035 26.0279 25.6889C26.2474 26.0743 26.3879 26.4997 26.4412 26.94C26.4945 27.3804 26.4594 27.8269 26.3381 28.2536C26.2168 28.6802 26.0117 29.0784 25.7347 29.4249C25.4577 29.7713 25.1144 30.0591 24.7249 30.2714C20.4517 32.705 16.8023 34.1002 13.5653 34.5318C12.8786 34.629 12.1862 34.6796 11.4927 34.6835Z" fill="#FFE64D"/>
</g>
<defs>
<clipPath id="clip0_420_671">
<rect width="120" height="34.6819" fill="white"/>
</clipPath>
</defs>
</svg>
